<svg xmlns="http://www.w3.org/2000/svg" width="1440" height="900"><path d="M752,400L727,287L690,370Z" fill="#285ef2" stroke="#285ef2" stroke-width="1.51"/><path d="M727,287L656,318L690,370Z" fill="#2f66eb" stroke="#2f66eb" stroke-width="1.51"/><path d="M873,299L767,238L727,287Z" fill="#356ee7" stroke="#356ee7" stroke-width="1.51"/><path d="M727,287L711,217L656,318Z" fill="#346ee5" stroke="#346ee5" stroke-width="1.51"/><path d="M767,238L711,217L727,287Z" fill="#3570e3" stroke="#3570e3" stroke-width="1.51"/><path d="M690,370L642,512L752,400Z" fill="#1954fa" stroke="#1954fa" stroke-width="1.51"/><path d="M656,318L617,399L690,370Z" fill="#2e64ed" stroke="#2e64ed" stroke-width="1.51"/><path d="M711,217L615,290L656,318Z" fill="#3672e2" stroke="#3672e2" stroke-width="1.51"/><path d="M656,318L615,290L617,399Z" fill="#336be7" stroke="#336be7" stroke-width="1.51"/><path d="M752,400L873,299L727,287Z" fill="#2f66ef" stroke="#2f66ef" stroke-width="1.51"/><path d="M752,400L867,405L873,299Z" fill="#2b61f3" stroke="#2b61f3" stroke-width="1.51"/><path d="M827,484L867,405L752,400Z" fill="#1c55fb" stroke="#1c55fb" stroke-width="1.51"/><path d="M767,238L778,183L711,217Z" fill="#3876df" stroke="#3876df" stroke-width="1.51"/><path d="M840,206L778,183L767,238Z" fill="#3979de" stroke="#3979de" stroke-width="1.51"/><path d="M764,513L827,484L752,400Z" fill="#1151ff" stroke="#1151ff" stroke-width="1.51"/><path d="M873,299L840,206L767,238Z" fill="#3874e3" stroke="#3874e3" stroke-width="1.51"/><path d="M642,512L764,513L752,400Z" fill="#084fff" stroke="#084fff" stroke-width="1.51"/><path d="M711,217L587,235L615,290Z" fill="#3878db" stroke="#3878db" stroke-width="1.51"/><path d="M778,183L691,165L711,217Z" fill="#3779db" stroke="#3779db" stroke-width="1.51"/><path d="M615,290L511,380L617,399Z" fill="#346ee6" stroke="#346ee6" stroke-width="1.51"/><path d="M691,165L587,235L711,217Z" fill="#387cd8" stroke="#387cd8" stroke-width="1.51"/><path d="M617,399L642,512L690,370Z" fill="#225af6" stroke="#225af6" stroke-width="1.51"/><path d="M867,405L947,400L873,299Z" fill="#2f64f3" stroke="#2f64f3" stroke-width="1.51"/><path d="M873,299L943,253L840,206Z" fill="#3976e4" stroke="#3976e4" stroke-width="1.51"/><path d="M917,502L947,400L867,405Z" fill="#225afd" stroke="#225afd" stroke-width="1.51"/><path d="M947,400L956,298L873,299Z" fill="#346bee" stroke="#346bee" stroke-width="1.51"/><path d="M956,298L943,253L873,299Z" fill="#3873e7" stroke="#3873e7" stroke-width="1.51"/><path d="M526,490L586,501L617,399Z" fill="#2a60f2" stroke="#2a60f2" stroke-width="1.51"/><path d="M617,399L586,501L642,512Z" fill="#255bf5" stroke="#255bf5" stroke-width="1.51"/><path d="M478,300L511,380L615,290Z" fill="#3878dd" stroke="#3878dd" stroke-width="1.51"/><path d="M827,484L917,502L867,405Z" fill="#1c56ff" stroke="#1c56ff" stroke-width="1.51"/><path d="M937,562L917,502L884,614Z" fill="#2a5ffe" stroke="#2a5ffe" stroke-width="1.51"/><path d="M691,165L565,177L587,235Z" fill="#3883d2" stroke="#3883d2" stroke-width="1.51"/><path d="M587,235L478,300L615,290Z" fill="#387dd8" stroke="#387dd8" stroke-width="1.51"/><path d="M759,48L687,53L691,165Z" fill="#677eca" stroke="#677eca" stroke-width="1.51"/><path d="M584,80L540,129L565,177Z" fill="#478fc3" stroke="#478fc3" stroke-width="1.51"/><path d="M840,206L844,112L778,183Z" fill="#3980d8" stroke="#3980d8" stroke-width="1.51"/><path d="M917,158L844,112L840,206Z" fill="#3a84d6" stroke="#3a84d6" stroke-width="1.51"/><path d="M884,614L917,502L827,484Z" fill="#255cfe" stroke="#255cfe" stroke-width="1.51"/><path d="M701,598L729,596L764,513Z" fill="#1d57ff" stroke="#1d57ff" stroke-width="1.51"/><path d="M701,598L764,513L642,512Z" fill="#1c57fd" stroke="#1c57fd" stroke-width="1.51"/><path d="M943,253L917,158L840,206Z" fill="#3a7edd" stroke="#3a7edd" stroke-width="1.51"/><path d="M1007,159L917,158L943,253Z" fill="#3b83da" stroke="#3b83da" stroke-width="1.51"/><path d="M600,605L701,598L642,512Z" fill="#295ff7" stroke="#295ff7" stroke-width="1.51"/><path d="M511,380L526,490L617,399Z" fill="#3066ec" stroke="#3066ec" stroke-width="1.51"/><path d="M586,501L600,605L642,512Z" fill="#2c61f4" stroke="#2c61f4" stroke-width="1.51"/><path d="M469,230L478,300L587,235Z" fill="#3885d1" stroke="#3885d1" stroke-width="1.51"/><path d="M397,411L453,528L526,490Z" fill="#346ee6" stroke="#346ee6" stroke-width="1.51"/><path d="M844,112L759,48L778,183Z" fill="#5782cf" stroke="#5782cf" stroke-width="1.51"/><path d="M919,49L823,62L844,112Z" fill="#7184c7" stroke="#7184c7" stroke-width="1.51"/><path d="M1004,514L1046,382L947,400Z" fill="#295ffc" stroke="#295ffc" stroke-width="1.51"/><path d="M1046,382L1046,317L956,298Z" fill="#3770ee" stroke="#3770ee" stroke-width="1.51"/><path d="M884,614L827,484L764,513Z" fill="#2159fe" stroke="#2159fe" stroke-width="1.51"/><path d="M565,177L469,230L587,235Z" fill="#3788ce" stroke="#3788ce" stroke-width="1.51"/><path d="M584,80L565,177L691,165Z" fill="#3e8aca" stroke="#3e8aca" stroke-width="1.51"/><path d="M540,129L469,230L565,177Z" fill="#358ec7" stroke="#358ec7" stroke-width="1.51"/><path d="M759,48L691,165L778,183Z" fill="#487fd3" stroke="#487fd3" stroke-width="1.51"/><path d="M823,62L759,48L844,112Z" fill="#7081c6" stroke="#7081c6" stroke-width="1.51"/><path d="M520,584L600,605L586,501Z" fill="#3168f0" stroke="#3168f0" stroke-width="1.51"/><path d="M729,596L819,656L764,513Z" fill="#235aff" stroke="#235aff" stroke-width="1.51"/><path d="M701,598L764,647L729,596Z" fill="#225afe" stroke="#225afe" stroke-width="1.51"/><path d="M643,662L764,647L701,598Z" fill="#275dfd" stroke="#275dfd" stroke-width="1.51"/><path d="M1046,382L956,298L947,400Z" fill="#336af2" stroke="#336af2" stroke-width="1.51"/><path d="M956,298L1044,268L943,253Z" fill="#3a78e6" stroke="#3a78e6" stroke-width="1.51"/><path d="M819,656L884,614L764,513Z" fill="#275dfe" stroke="#275dfe" stroke-width="1.51"/><path d="M687,53L584,80L691,165Z" fill="#6085c5" stroke="#6085c5" stroke-width="1.51"/><path d="M1004,514L947,400L917,502Z" fill="#245bfe" stroke="#245bfe" stroke-width="1.51"/><path d="M1046,317L1044,268L956,298Z" fill="#3a76e9" stroke="#3a76e9" stroke-width="1.51"/><path d="M917,158L919,49L844,112Z" fill="#5e86cd" stroke="#5e86cd" stroke-width="1.51"/><path d="M937,562L1004,514L917,502Z" fill="#295ffe" stroke="#295ffe" stroke-width="1.51"/><path d="M1046,579L1004,514L937,562Z" fill="#2e63fe" stroke="#2e63fe" stroke-width="1.51"/><path d="M478,300L428,357L511,380Z" fill="#387bda" stroke="#387bda" stroke-width="1.51"/><path d="M526,490L520,584L586,501Z" fill="#3168ee" stroke="#3168ee" stroke-width="1.51"/><path d="M384,241L428,357L478,300Z" fill="#3787cf" stroke="#3787cf" stroke-width="1.51"/><path d="M764,647L819,656L729,596Z" fill="#275dfe" stroke="#275dfe" stroke-width="1.51"/><path d="M1044,268L1007,159L943,253Z" fill="#3b80e0" stroke="#3b80e0" stroke-width="1.51"/><path d="M453,528L520,584L526,490Z" fill="#356eea" stroke="#356eea" stroke-width="1.51"/><path d="M559,689L643,662L600,605Z" fill="#346bf2" stroke="#346bf2" stroke-width="1.51"/><path d="M600,605L643,662L701,598Z" fill="#2d62f7" stroke="#2d62f7" stroke-width="1.51"/><path d="M764,647L786,771L819,656Z" fill="#2d62fe" stroke="#2d62fe" stroke-width="1.51"/><path d="M397,411L526,490L511,380Z" fill="#346de5" stroke="#346de5" stroke-width="1.51"/><path d="M823,62L759,-24L759,48Z" fill="#867fbe" stroke="#867fbe" stroke-width="1.51"/><path d="M993,70L919,49L917,158Z" fill="#6788ca" stroke="#6788ca" stroke-width="1.51"/><path d="M428,357L397,411L511,380Z" fill="#3878dc" stroke="#3878dc" stroke-width="1.51"/><path d="M334,289L397,411L428,357Z" fill="#3883d2" stroke="#3883d2" stroke-width="1.51"/><path d="M520,584L526,632L600,605Z" fill="#356dee" stroke="#356dee" stroke-width="1.51"/><path d="M432,653L526,632L520,584Z" fill="#3874e8" stroke="#3874e8" stroke-width="1.51"/><path d="M759,48L759,-24L687,53Z" fill="#877cbd" stroke="#877cbd" stroke-width="1.51"/><path d="M687,53L600,-50L584,80Z" fill="#8487b5" stroke="#8487b5" stroke-width="1.51"/><path d="M875,-43L759,-24L823,62Z" fill="#9380b7" stroke="#9380b7" stroke-width="1.51"/><path d="M819,656L920,665L884,614Z" fill="#2e64fe" stroke="#2e64fe" stroke-width="1.51"/><path d="M884,614L920,665L937,562Z" fill="#2e63fe" stroke="#2e63fe" stroke-width="1.51"/><path d="M941,717L920,665L832,774Z" fill="#346afd" stroke="#346afd" stroke-width="1.51"/><path d="M1007,159L993,70L917,158Z" fill="#4d8ad0" stroke="#4d8ad0" stroke-width="1.51"/><path d="M919,49L875,-43L823,62Z" fill="#8a83bc" stroke="#8a83bc" stroke-width="1.51"/><path d="M1079,124L993,70L1007,159Z" fill="#568dce" stroke="#568dce" stroke-width="1.51"/><path d="M469,230L384,241L478,300Z" fill="#368bca" stroke="#368bca" stroke-width="1.51"/><path d="M406,150L384,241L469,230Z" fill="#3195c1" stroke="#3195c1" stroke-width="1.51"/><path d="M406,150L469,230L540,129Z" fill="#3196c0" stroke="#3196c0" stroke-width="1.51"/><path d="M1044,268L1111,257L1007,159Z" fill="#3d82df" stroke="#3d82df" stroke-width="1.51"/><path d="M1046,317L1111,257L1044,268Z" fill="#3c7be7" stroke="#3c7be7" stroke-width="1.51"/><path d="M1123,347L1111,257L1046,317Z" fill="#3b78ea" stroke="#3b78ea" stroke-width="1.51"/><path d="M1123,347L1046,317L1046,382Z" fill="#3870f0" stroke="#3870f0" stroke-width="1.51"/><path d="M1119,402L1123,347L1046,382Z" fill="#366cf3" stroke="#366cf3" stroke-width="1.51"/><path d="M1119,402L1046,382L1139,485Z" fill="#3066fa" stroke="#3066fa" stroke-width="1.51"/><path d="M1139,485L1046,382L1004,514Z" fill="#2a60fe" stroke="#2a60fe" stroke-width="1.51"/><path d="M1030,657L1046,579L937,562Z" fill="#3267fe" stroke="#3267fe" stroke-width="1.51"/><path d="M397,411L367,437L453,528Z" fill="#3672e1" stroke="#3672e1" stroke-width="1.51"/><path d="M453,528L420,590L520,584Z" fill="#3874e6" stroke="#3874e6" stroke-width="1.51"/><path d="M334,289L367,437L397,411Z" fill="#3881d4" stroke="#3881d4" stroke-width="1.51"/><path d="M473,48L406,150L540,129Z" fill="#5398b6" stroke="#5398b6" stroke-width="1.51"/><path d="M473,48L540,129L584,80Z" fill="#6492b7" stroke="#6492b7" stroke-width="1.51"/><path d="M526,632L559,689L600,605Z" fill="#366eef" stroke="#366eef" stroke-width="1.51"/><path d="M832,774L920,665L819,656Z" fill="#3166fe" stroke="#3166fe" stroke-width="1.51"/><path d="M472,726L559,689L526,632Z" fill="#3975eb" stroke="#3975eb" stroke-width="1.51"/><path d="M759,-24L691,-51L687,53Z" fill="#957cb6" stroke="#957cb6" stroke-width="1.51"/><path d="M526,-32L473,48L584,80Z" fill="#7f92ac" stroke="#7f92ac" stroke-width="1.51"/><path d="M1111,257L1079,124L1007,159Z" fill="#3c8ad9" stroke="#3c8ad9" stroke-width="1.51"/><path d="M320,461L420,590L453,528Z" fill="#3978e0" stroke="#3978e0" stroke-width="1.51"/><path d="M940,-43L919,49L993,70Z" fill="#8987bc" stroke="#8987bc" stroke-width="1.51"/><path d="M940,-43L875,-43L919,49Z" fill="#9884b5" stroke="#9884b5" stroke-width="1.51"/><path d="M759,-24L701,-122L691,-51Z" fill="#aa79ab" stroke="#aa79ab" stroke-width="1.51"/><path d="M384,241L334,289L428,357Z" fill="#368cca" stroke="#368cca" stroke-width="1.51"/><path d="M339,228L334,289L384,241Z" fill="#3195c1" stroke="#3195c1" stroke-width="1.51"/><path d="M691,-51L600,-50L687,53Z" fill="#9782af" stroke="#9782af" stroke-width="1.51"/><path d="M319,169L339,228L406,150Z" fill="#25a0b7" stroke="#25a0b7" stroke-width="1.51"/><path d="M406,150L339,228L384,241Z" fill="#2d9abd" stroke="#2d9abd" stroke-width="1.51"/><path d="M1123,347L1162,323L1111,257Z" fill="#3c7aea" stroke="#3c7aea" stroke-width="1.51"/><path d="M1111,257L1164,228L1079,124Z" fill="#3d89db" stroke="#3d89db" stroke-width="1.51"/><path d="M1176,424L1162,323L1123,347Z" fill="#3971f2" stroke="#3971f2" stroke-width="1.51"/><path d="M1176,424L1123,347L1119,402Z" fill="#366df5" stroke="#366df5" stroke-width="1.51"/><path d="M1106,574L1139,485L1004,514Z" fill="#3065fe" stroke="#3065fe" stroke-width="1.51"/><path d="M920,665L1030,657L937,562Z" fill="#3267fd" stroke="#3267fd" stroke-width="1.51"/><path d="M1046,579L1106,574L1004,514Z" fill="#3066fe" stroke="#3066fe" stroke-width="1.51"/><path d="M786,771L764,647L670,775Z" fill="#2e63fe" stroke="#2e63fe" stroke-width="1.51"/><path d="M1079,124L1081,86L993,70Z" fill="#678eca" stroke="#678eca" stroke-width="1.51"/><path d="M1203,156L1081,86L1079,124Z" fill="#5391ce" stroke="#5391ce" stroke-width="1.51"/><path d="M941,717L1030,657L920,665Z" fill="#356bfd" stroke="#356bfd" stroke-width="1.51"/><path d="M670,775L764,647L643,662Z" fill="#2e63fc" stroke="#2e63fc" stroke-width="1.51"/><path d="M1076,632L1106,574L1046,579Z" fill="#346afe" stroke="#346afe" stroke-width="1.51"/><path d="M473,48L434,33L406,150Z" fill="#649cac" stroke="#649cac" stroke-width="1.51"/><path d="M600,-50L526,-32L584,80Z" fill="#8e8ca9" stroke="#8e8ca9" stroke-width="1.51"/><path d="M778,-142L701,-122L759,-24Z" fill="#b47aa5" stroke="#b47aa5" stroke-width="1.51"/><path d="M1057,-51L940,-43L993,70Z" fill="#9789b5" stroke="#9789b5" stroke-width="1.51"/><path d="M448,-53L434,33L473,48Z" fill="#859aa0" stroke="#859aa0" stroke-width="1.51"/><path d="M367,437L320,461L453,528Z" fill="#3876df" stroke="#3876df" stroke-width="1.51"/><path d="M252,395L320,461L367,437Z" fill="#387fd6" stroke="#387fd6" stroke-width="1.51"/><path d="M571,774L670,775L643,662Z" fill="#366df5" stroke="#366df5" stroke-width="1.51"/><path d="M571,774L643,662L559,689Z" fill="#376ff1" stroke="#376ff1" stroke-width="1.51"/><path d="M420,590L432,653L520,584Z" fill="#3978e5" stroke="#3978e5" stroke-width="1.51"/><path d="M334,615L432,653L420,590Z" fill="#3b7fdf" stroke="#3b7fdf" stroke-width="1.51"/><path d="M1162,323L1164,228L1111,257Z" fill="#3d80e5" stroke="#3d80e5" stroke-width="1.51"/><path d="M786,771L832,774L819,656Z" fill="#3167fd" stroke="#3167fd" stroke-width="1.51"/><path d="M791,830L832,774L786,771Z" fill="#3066fd" stroke="#3066fd" stroke-width="1.51"/><path d="M1030,657L1076,632L1046,579Z" fill="#356bfd" stroke="#356bfd" stroke-width="1.51"/><path d="M1132,718L1076,632L1030,657Z" fill="#3970fd" stroke="#3970fd" stroke-width="1.51"/><path d="M1139,485L1176,424L1119,402Z" fill="#3065fc" stroke="#3065fc" stroke-width="1.51"/><path d="M1270,173L1203,156L1164,228Z" fill="#3c8bd9" stroke="#3c8bd9" stroke-width="1.51"/><path d="M1202,517L1176,424L1139,485Z" fill="#2f65fe" stroke="#2f65fe" stroke-width="1.51"/><path d="M365,47L319,169L406,150Z" fill="#3fa3ad" stroke="#3fa3ad" stroke-width="1.51"/><path d="M266,232L269,317L334,289Z" fill="#2e98be" stroke="#2e98be" stroke-width="1.51"/><path d="M334,289L269,317L367,437Z" fill="#368bcb" stroke="#368bcb" stroke-width="1.51"/><path d="M472,726L571,774L559,689Z" fill="#3b77ec" stroke="#3b77ec" stroke-width="1.51"/><path d="M477,-105L448,-53L526,-32Z" fill="#a29694" stroke="#a29694" stroke-width="1.51"/><path d="M691,-51L701,-122L600,-50Z" fill="#ab80a4" stroke="#ab80a4" stroke-width="1.51"/><path d="M858,-117L759,-24L875,-43Z" fill="#a97fab" stroke="#a97fab" stroke-width="1.51"/><path d="M432,653L472,726L526,632Z" fill="#3b79e6" stroke="#3b79e6" stroke-width="1.51"/><path d="M438,720L472,726L432,653Z" fill="#3c7fe4" stroke="#3c7fe4" stroke-width="1.51"/><path d="M266,232L334,289L339,228Z" fill="#2c9abc" stroke="#2c9abc" stroke-width="1.51"/><path d="M954,-103L858,-117L875,-43Z" fill="#b382a6" stroke="#b382a6" stroke-width="1.51"/><path d="M571,774L614,804L670,775Z" fill="#366ef4" stroke="#366ef4" stroke-width="1.51"/><path d="M702,837L791,830L786,771Z" fill="#2c62fe" stroke="#2c62fe" stroke-width="1.51"/><path d="M539,905L614,804L571,774Z" fill="#3771f0" stroke="#3771f0" stroke-width="1.51"/><path d="M448,-53L473,48L526,-32Z" fill="#8f969e" stroke="#8f969e" stroke-width="1.51"/><path d="M448,-53L365,47L434,33Z" fill="#839e9c" stroke="#839e9c" stroke-width="1.51"/><path d="M434,33L365,47L406,150Z" fill="#62a0a8" stroke="#62a0a8" stroke-width="1.51"/><path d="M472,726L484,868L571,774Z" fill="#3b7ae9" stroke="#3b7ae9" stroke-width="1.51"/><path d="M351,755L438,720L432,653Z" fill="#3d84df" stroke="#3d84df" stroke-width="1.51"/><path d="M858,-117L778,-142L759,-24Z" fill="#b47ca5" stroke="#b47ca5" stroke-width="1.51"/><path d="M230,134L266,232L319,169Z" fill="#2ba6ad" stroke="#2ba6ad" stroke-width="1.51"/><path d="M319,169L266,232L339,228Z" fill="#24a0b6" stroke="#24a0b6" stroke-width="1.51"/><path d="M939,852L1028,747L941,717Z" fill="#386ffd" stroke="#386ffd" stroke-width="1.51"/><path d="M941,717L1028,747L1030,657Z" fill="#386ffd" stroke="#386ffd" stroke-width="1.51"/><path d="M702,837L786,771L670,775Z" fill="#2c61fe" stroke="#2c61fe" stroke-width="1.51"/><path d="M320,461L334,615L420,590Z" fill="#3a7fdc" stroke="#3a7fdc" stroke-width="1.51"/><path d="M279,596L334,615L320,461Z" fill="#3a83d7" stroke="#3a83d7" stroke-width="1.51"/><path d="M269,317L252,395L367,437Z" fill="#3788ce" stroke="#3788ce" stroke-width="1.51"/><path d="M195,289L252,395L269,317Z" fill="#5490bf" stroke="#5490bf" stroke-width="1.51"/><path d="M1276,261L1164,228L1162,323Z" fill="#3c7fe5" stroke="#3c7fe5" stroke-width="1.51"/><path d="M1106,574L1202,517L1139,485Z" fill="#3369fd" stroke="#3369fd" stroke-width="1.51"/><path d="M1218,581L1202,517L1106,574Z" fill="#356afd" stroke="#356afd" stroke-width="1.51"/><path d="M601,-142L526,-32L600,-50Z" fill="#a98b9b" stroke="#a98b9b" stroke-width="1.51"/><path d="M858,-117L1036,-114L778,-142Z" fill="#be819f" stroke="#be819f" stroke-width="1.51"/><path d="M940,-43L954,-103L875,-43Z" fill="#ab84ab" stroke="#ab84ab" stroke-width="1.51"/><path d="M1057,-51L954,-103L940,-43Z" fill="#ac87a9" stroke="#ac87a9" stroke-width="1.51"/><path d="M1211,677L1218,581L1106,574Z" fill="#386efd" stroke="#386efd" stroke-width="1.51"/><path d="M939,852L941,717L832,774Z" fill="#356bfd" stroke="#356bfd" stroke-width="1.51"/><path d="M614,804L702,837L670,775Z" fill="#3268f9" stroke="#3268f9" stroke-width="1.51"/><path d="M1164,228L1203,156L1079,124Z" fill="#3d90d7" stroke="#3d90d7" stroke-width="1.51"/><path d="M1081,86L1057,-51L993,70Z" fill="#858cbe" stroke="#858cbe" stroke-width="1.51"/><path d="M1247,337L1162,323L1176,424Z" fill="#3870f1" stroke="#3870f1" stroke-width="1.51"/><path d="M701,-122L601,-142L600,-50Z" fill="#b4839b" stroke="#b4839b" stroke-width="1.51"/><path d="M778,-142L601,-142L701,-122Z" fill="#bf7a9b" stroke="#bf7a9b" stroke-width="1.51"/><path d="M1122,-9L1057,-51L1081,86Z" fill="#918eb8" stroke="#918eb8" stroke-width="1.51"/><path d="M1254,442L1247,337L1176,424Z" fill="#3269f8" stroke="#3269f8" stroke-width="1.51"/><path d="M1187,32L1122,-9L1081,86Z" fill="#8591bd" stroke="#8591bd" stroke-width="1.51"/><path d="M281,4L230,134L365,47Z" fill="#63ab9a" stroke="#63ab9a" stroke-width="1.51"/><path d="M601,-142L477,-105L526,-32Z" fill="#ad9093" stroke="#ad9093" stroke-width="1.51"/><path d="M1202,517L1254,442L1176,424Z" fill="#2c62fe" stroke="#2c62fe" stroke-width="1.51"/><path d="M252,395L249,522L320,461Z" fill="#437fd4" stroke="#437fd4" stroke-width="1.51"/><path d="M249,522L279,596L320,461Z" fill="#3e84d4" stroke="#3e84d4" stroke-width="1.51"/><path d="M334,615L298,654L432,653Z" fill="#3c85db" stroke="#3c85db" stroke-width="1.51"/><path d="M1202,517L1291,494L1254,442Z" fill="#2c63fe" stroke="#2c63fe" stroke-width="1.51"/><path d="M1211,677L1106,574L1076,632Z" fill="#396ffd" stroke="#396ffd" stroke-width="1.51"/><path d="M791,830L865,866L832,774Z" fill="#2f66fe" stroke="#2f66fe" stroke-width="1.51"/><path d="M743,905L865,866L791,830Z" fill="#2b62fe" stroke="#2b62fe" stroke-width="1.51"/><path d="M1203,156L1187,32L1081,86Z" fill="#6993c8" stroke="#6993c8" stroke-width="1.51"/><path d="M1247,337L1276,261L1162,323Z" fill="#3b78ea" stroke="#3b78ea" stroke-width="1.51"/><path d="M1352,345L1276,261L1247,337Z" fill="#3875eb" stroke="#3875eb" stroke-width="1.51"/><path d="M266,639L298,654L279,596Z" fill="#408bd3" stroke="#408bd3" stroke-width="1.51"/><path d="M279,596L298,654L334,615Z" fill="#3b89d6" stroke="#3b89d6" stroke-width="1.51"/><path d="M653,943L702,837L614,804Z" fill="#2f66f8" stroke="#2f66f8" stroke-width="1.51"/><path d="M1028,747L1132,718L1030,657Z" fill="#3a72fd" stroke="#3a72fd" stroke-width="1.51"/><path d="M1105,851L1132,718L1028,747Z" fill="#3c75fc" stroke="#3c75fc" stroke-width="1.51"/><path d="M1106,-106L1036,-114L1057,-51Z" fill="#b58ba4" stroke="#b58ba4" stroke-width="1.51"/><path d="M1272,58L1187,32L1203,156Z" fill="#6e90c7" stroke="#6e90c7" stroke-width="1.51"/><path d="M954,-103L1036,-114L858,-117Z" fill="#ba84a1" stroke="#ba84a1" stroke-width="1.51"/><path d="M1057,-51L1036,-114L954,-103Z" fill="#b488a5" stroke="#b488a5" stroke-width="1.51"/><path d="M1106,-106L1057,-51L1122,-9Z" fill="#a98dab" stroke="#a98dab" stroke-width="1.51"/><path d="M865,866L939,852L832,774Z" fill="#3168fe" stroke="#3168fe" stroke-width="1.51"/><path d="M266,232L195,289L269,317Z" fill="#4d98b7" stroke="#4d98b7" stroke-width="1.51"/><path d="M252,395L186,461L249,522Z" fill="#5c7ece" stroke="#5c7ece" stroke-width="1.51"/><path d="M171,263L195,289L266,232Z" fill="#5b9bb0" stroke="#5b9bb0" stroke-width="1.51"/><path d="M365,47L230,134L319,169Z" fill="#3daaa6" stroke="#3daaa6" stroke-width="1.51"/><path d="M281,4L365,47L334,-63Z" fill="#83a890" stroke="#83a890" stroke-width="1.51"/><path d="M1276,261L1270,173L1164,228Z" fill="#3d85de" stroke="#3d85de" stroke-width="1.51"/><path d="M135,551L266,639L279,596Z" fill="#5f88cc" stroke="#5f88cc" stroke-width="1.51"/><path d="M484,868L472,726L430,845Z" fill="#3c7ee5" stroke="#3c7ee5" stroke-width="1.51"/><path d="M135,551L279,596L249,522Z" fill="#6185cc" stroke="#6185cc" stroke-width="1.51"/><path d="M702,837L743,905L791,830Z" fill="#2860fe" stroke="#2860fe" stroke-width="1.51"/><path d="M865,866L952,891L939,852Z" fill="#3068fe" stroke="#3068fe" stroke-width="1.51"/><path d="M653,943L743,905L702,837Z" fill="#265ffc" stroke="#265ffc" stroke-width="1.51"/><path d="M351,755L432,653L298,654Z" fill="#3c87dc" stroke="#3c87dc" stroke-width="1.51"/><path d="M244,729L351,755L298,654Z" fill="#3b8fd5" stroke="#3b8fd5" stroke-width="1.51"/><path d="M121,384L186,461L252,395Z" fill="#6e83c2" stroke="#6e83c2" stroke-width="1.51"/><path d="M1187,32L1197,4L1122,-9Z" fill="#9191b7" stroke="#9191b7" stroke-width="1.51"/><path d="M1272,58L1197,4L1187,32Z" fill="#878fbc" stroke="#878fbc" stroke-width="1.51"/><path d="M1254,442L1352,345L1247,337Z" fill="#336bf4" stroke="#336bf4" stroke-width="1.51"/><path d="M1259,593L1291,494L1202,517Z" fill="#3066fe" stroke="#3066fe" stroke-width="1.51"/><path d="M1259,593L1202,517L1218,581Z" fill="#3369fe" stroke="#3369fe" stroke-width="1.51"/><path d="M334,-63L365,47L448,-53Z" fill="#8ea292" stroke="#8ea292" stroke-width="1.51"/><path d="M1211,677L1259,593L1218,581Z" fill="#356dfd" stroke="#356dfd" stroke-width="1.51"/><path d="M391,-115L334,-63L448,-53Z" fill="#a2a187" stroke="#a2a187" stroke-width="1.51"/><path d="M391,-115L448,-53L477,-105Z" fill="#a89b89" stroke="#a89b89" stroke-width="1.51"/><path d="M195,289L121,384L252,395Z" fill="#6a8cba" stroke="#6a8cba" stroke-width="1.51"/><path d="M162,161L171,263L266,232Z" fill="#5ca1a8" stroke="#5ca1a8" stroke-width="1.51"/><path d="M162,161L266,232L230,134Z" fill="#4ea7a5" stroke="#4ea7a5" stroke-width="1.51"/><path d="M1132,718L1211,677L1076,632Z" fill="#3b73fd" stroke="#3b73fd" stroke-width="1.51"/><path d="M1186,784L1211,677L1132,718Z" fill="#3e76fc" stroke="#3e76fc" stroke-width="1.51"/><path d="M601,-142L391,-115L477,-105Z" fill="#b39589" stroke="#b39589" stroke-width="1.51"/><path d="M1213,-96L1106,-106L1122,-9Z" fill="#ae90a8" stroke="#ae90a8" stroke-width="1.51"/><path d="M430,845L472,726L438,720Z" fill="#3d82e3" stroke="#3d82e3" stroke-width="1.51"/><path d="M939,852L1055,845L1028,747Z" fill="#386ffd" stroke="#386ffd" stroke-width="1.51"/><path d="M880,960L952,891L865,866Z" fill="#2d65fe" stroke="#2d65fe" stroke-width="1.51"/><path d="M351,755L430,845L438,720Z" fill="#3d86df" stroke="#3d86df" stroke-width="1.51"/><path d="M952,891L1055,845L939,852Z" fill="#346cfd" stroke="#346cfd" stroke-width="1.51"/><path d="M476,984L539,905L484,868Z" fill="#3775e9" stroke="#3775e9" stroke-width="1.51"/><path d="M484,868L539,905L571,774Z" fill="#3875ec" stroke="#3875ec" stroke-width="1.51"/><path d="M391,-115L328,-90L334,-63Z" fill="#a4a580" stroke="#a4a580" stroke-width="1.51"/><path d="M334,-63L328,-90L281,4Z" fill="#94a984" stroke="#94a984" stroke-width="1.51"/><path d="M1270,173L1272,58L1203,156Z" fill="#4d90d0" stroke="#4d90d0" stroke-width="1.51"/><path d="M1197,4L1213,-96L1122,-9Z" fill="#a18faf" stroke="#a18faf" stroke-width="1.51"/><path d="M1364,157L1272,58L1270,173Z" fill="#4c8ed0" stroke="#4c8ed0" stroke-width="1.51"/><path d="M1364,157L1270,173L1391,218Z" fill="#3b88d9" stroke="#3b88d9" stroke-width="1.51"/><path d="M597,953L653,943L614,804Z" fill="#3068f5" stroke="#3068f5" stroke-width="1.51"/><path d="M743,905L880,960L865,866Z" fill="#2962fe" stroke="#2962fe" stroke-width="1.51"/><path d="M122,56L162,161L230,134Z" fill="#6fac94" stroke="#6fac94" stroke-width="1.51"/><path d="M171,263L121,384L195,289Z" fill="#7293b0" stroke="#7293b0" stroke-width="1.51"/><path d="M220,27L230,134L281,4Z" fill="#75ac91" stroke="#75ac91" stroke-width="1.51"/><path d="M189,4L220,27L281,4Z" fill="#8aac86" stroke="#8aac86" stroke-width="1.51"/><path d="M1354,471L1352,345L1254,442Z" fill="#2c63fa" stroke="#2c63fa" stroke-width="1.51"/><path d="M1354,471L1254,442L1291,494Z" fill="#2860fe" stroke="#2860fe" stroke-width="1.51"/><path d="M1259,593L1383,566L1291,494Z" fill="#2f65fe" stroke="#2f65fe" stroke-width="1.51"/><path d="M1211,677L1291,630L1259,593Z" fill="#366dfd" stroke="#366dfd" stroke-width="1.51"/><path d="M1357,671L1291,630L1286,785Z" fill="#386ffd" stroke="#386ffd" stroke-width="1.51"/><path d="M132,666L244,729L266,639Z" fill="#658dca" stroke="#658dca" stroke-width="1.51"/><path d="M75,399L121,384L40,315Z" fill="#8e89ad" stroke="#8e89ad" stroke-width="1.51"/><path d="M1055,845L1105,851L1028,747Z" fill="#3a72fd" stroke="#3a72fd" stroke-width="1.51"/><path d="M1091,931L1105,851L1055,845Z" fill="#386ffd" stroke="#386ffd" stroke-width="1.51"/><path d="M1383,566L1354,471L1291,494Z" fill="#2961fe" stroke="#2961fe" stroke-width="1.51"/><path d="M1163,830L1186,784L1132,718Z" fill="#3e77fc" stroke="#3e77fc" stroke-width="1.51"/><path d="M539,905L597,953L614,804Z" fill="#336df1" stroke="#336df1" stroke-width="1.51"/><path d="M797,1008L880,960L743,905Z" fill="#235efe" stroke="#235efe" stroke-width="1.51"/><path d="M608,1021L597,953L476,984Z" fill="#306bef" stroke="#306bef" stroke-width="1.51"/><path d="M266,639L244,729L298,654Z" fill="#488ed2" stroke="#488ed2" stroke-width="1.51"/><path d="M351,755L351,840L430,845Z" fill="#3c87dd" stroke="#3c87dd" stroke-width="1.51"/><path d="M430,845L407,891L484,868Z" fill="#3b7ee3" stroke="#3b7ee3" stroke-width="1.51"/><path d="M135,551L249,522L186,461Z" fill="#6e81c8" stroke="#6e81c8" stroke-width="1.51"/><path d="M256,853L351,840L351,755Z" fill="#3c8dd7" stroke="#3c8dd7" stroke-width="1.51"/><path d="M952,891L1009,919L1055,845Z" fill="#346bfd" stroke="#346bfd" stroke-width="1.51"/><path d="M646,994L743,905L653,943Z" fill="#255ffb" stroke="#255ffb" stroke-width="1.51"/><path d="M924,993L1009,919L952,891Z" fill="#2f67fd" stroke="#2f67fd" stroke-width="1.51"/><path d="M45,518L135,551L186,461Z" fill="#8580be" stroke="#8580be" stroke-width="1.51"/><path d="M351,840L407,891L430,845Z" fill="#3b83df" stroke="#3b83df" stroke-width="1.51"/><path d="M1105,851L1163,830L1132,718Z" fill="#3d76fc" stroke="#3d76fc" stroke-width="1.51"/><path d="M1357,671L1383,566L1291,630Z" fill="#3269fd" stroke="#3269fd" stroke-width="1.51"/><path d="M1220,895L1163,830L1105,851Z" fill="#3a74fd" stroke="#3a74fd" stroke-width="1.51"/><path d="M1247,-97L1213,-96L1197,4Z" fill="#ac8ea9" stroke="#ac8ea9" stroke-width="1.51"/><path d="M1106,-106L1247,-97L1036,-114Z" fill="#ba8ea0" stroke="#ba8ea0" stroke-width="1.51"/><path d="M1036,-114L1482,-87L778,-142Z" fill="#bc8c9f" stroke="#bc8c9f" stroke-width="1.51"/><path d="M40,315L121,384L171,263Z" fill="#8391ab" stroke="#8391ab" stroke-width="1.51"/><path d="M220,27L122,56L230,134Z" fill="#7dac8e" stroke="#7dac8e" stroke-width="1.51"/><path d="M232,-142L189,4L281,4Z" fill="#9dac7b" stroke="#9dac7b" stroke-width="1.51"/><path d="M1298,-61L1247,-97L1197,4Z" fill="#a88dac" stroke="#a88dac" stroke-width="1.51"/><path d="M1391,218L1270,173L1276,261Z" fill="#3b83de" stroke="#3b83de" stroke-width="1.51"/><path d="M1391,218L1276,261L1352,345Z" fill="#3a79e6" stroke="#3a79e6" stroke-width="1.51"/><path d="M1354,471L1398,378L1352,345Z" fill="#2d65f7" stroke="#2d65f7" stroke-width="1.51"/><path d="M1447,483L1398,378L1354,471Z" fill="#225cfe" stroke="#225cfe" stroke-width="1.51"/><path d="M597,953L646,994L653,943Z" fill="#2b64f6" stroke="#2b64f6" stroke-width="1.51"/><path d="M608,1021L646,994L597,953Z" fill="#2a64f4" stroke="#2a64f4" stroke-width="1.51"/><path d="M1465,321L1391,218L1352,345Z" fill="#3774e9" stroke="#3774e9" stroke-width="1.51"/><path d="M646,994L797,1008L743,905Z" fill="#1c59ff" stroke="#1c59ff" stroke-width="1.51"/><path d="M880,960L924,993L952,891Z" fill="#2c64fe" stroke="#2c64fe" stroke-width="1.51"/><path d="M121,384L75,399L186,461Z" fill="#8282ba" stroke="#8282ba" stroke-width="1.51"/><path d="M64,232L171,263L162,161Z" fill="#75a19f" stroke="#75a19f" stroke-width="1.51"/><path d="M1213,-96L1247,-97L1106,-106Z" fill="#b88ea2" stroke="#b88ea2" stroke-width="1.51"/><path d="M1298,-61L1197,4L1272,58Z" fill="#948db7" stroke="#948db7" stroke-width="1.51"/><path d="M476,984L597,953L539,905Z" fill="#346fed" stroke="#346fed" stroke-width="1.51"/><path d="M351,840L349,889L407,891Z" fill="#3b85dc" stroke="#3b85dc" stroke-width="1.51"/><path d="M256,853L349,889L351,840Z" fill="#3a8bd7" stroke="#3a8bd7" stroke-width="1.51"/><path d="M1009,919L1091,931L1055,845Z" fill="#356dfd" stroke="#356dfd" stroke-width="1.51"/><path d="M887,1040L924,993L880,960Z" fill="#2761fe" stroke="#2761fe" stroke-width="1.51"/><path d="M122,56L90,156L162,161Z" fill="#7bac8e" stroke="#7bac8e" stroke-width="1.51"/><path d="M1291,630L1383,566L1259,593Z" fill="#3169fe" stroke="#3169fe" stroke-width="1.51"/><path d="M1291,630L1211,677L1286,785Z" fill="#3972fd" stroke="#3972fd" stroke-width="1.51"/><path d="M189,4L122,56L220,27Z" fill="#92ac82" stroke="#92ac82" stroke-width="1.51"/><path d="M1082,1017L1091,931L1009,919Z" fill="#326bfe" stroke="#326bfe" stroke-width="1.51"/><path d="M1286,785L1211,677L1186,784Z" fill="#3d76fd" stroke="#3d76fd" stroke-width="1.51"/><path d="M90,156L64,232L162,161Z" fill="#7aa696" stroke="#7aa696" stroke-width="1.51"/><path d="M11,211L64,232L90,156Z" fill="#8aa491" stroke="#8aa491" stroke-width="1.51"/><path d="M1386,25L1272,58L1364,157Z" fill="#6e8cc7" stroke="#6e8cc7" stroke-width="1.51"/><path d="M1350,-42L1298,-61L1272,58Z" fill="#998cb4" stroke="#998cb4" stroke-width="1.51"/><path d="M244,729L256,853L351,755Z" fill="#3e92d3" stroke="#3e92d3" stroke-width="1.51"/><path d="M135,551L132,666L266,639Z" fill="#7389c5" stroke="#7389c5" stroke-width="1.51"/><path d="M85,649L132,666L135,551Z" fill="#8888bc" stroke="#8888bc" stroke-width="1.51"/><path d="M646,994L608,1021L797,1008Z" fill="#1f5cfb" stroke="#1f5cfb" stroke-width="1.51"/><path d="M476,984L484,868L407,891Z" fill="#397ae5" stroke="#397ae5" stroke-width="1.51"/><path d="M432,1027L476,984L407,891Z" fill="#3879e4" stroke="#3879e4" stroke-width="1.51"/><path d="M1286,785L1186,784L1259,870Z" fill="#3a73fd" stroke="#3a73fd" stroke-width="1.51"/><path d="M132,666L153,725L244,729Z" fill="#758fc4" stroke="#758fc4" stroke-width="1.51"/><path d="M1259,870L1186,784L1163,830Z" fill="#3a74fd" stroke="#3a74fd" stroke-width="1.51"/><path d="M64,232L40,315L171,263Z" fill="#8599a1" stroke="#8599a1" stroke-width="1.51"/><path d="M75,399L45,518L186,461Z" fill="#8b7cbc" stroke="#8b7cbc" stroke-width="1.51"/><path d="M328,-90L232,-142L281,4Z" fill="#9dac7b" stroke="#9dac7b" stroke-width="1.51"/><path d="M66,-6L76,43L122,56Z" fill="#a6ac75" stroke="#a6ac75" stroke-width="1.51"/><path d="M391,-115L232,-142L328,-90Z" fill="#aaa977" stroke="#aaa977" stroke-width="1.51"/><path d="M601,-142L232,-142L391,-115Z" fill="#b49f7d" stroke="#b49f7d" stroke-width="1.51"/><path d="M365,1044L432,1027L407,891Z" fill="#387de0" stroke="#387de0" stroke-width="1.51"/><path d="M158,860L256,853L244,729Z" fill="#6390ca" stroke="#6390ca" stroke-width="1.51"/><path d="M797,1008L887,1040L880,960Z" fill="#235eff" stroke="#235eff" stroke-width="1.51"/><path d="M924,993L1027,1029L1009,919Z" fill="#2d66fe" stroke="#2d66fe" stroke-width="1.51"/><path d="M608,1021L887,1040L797,1008Z" fill="#1959ff" stroke="#1959ff" stroke-width="1.51"/><path d="M-11,373L45,518L75,399Z" fill="#9c7db0" stroke="#9c7db0" stroke-width="1.51"/><path d="M132,666L83,718L153,725Z" fill="#878ebd" stroke="#878ebd" stroke-width="1.51"/><path d="M1452,63L1386,25L1364,157Z" fill="#6c8ac8" stroke="#6c8ac8" stroke-width="1.51"/><path d="M1449,198L1364,157L1391,218Z" fill="#3a85db" stroke="#3a85db" stroke-width="1.51"/><path d="M1433,605L1447,483L1383,566Z" fill="#2962fe" stroke="#2962fe" stroke-width="1.51"/><path d="M1383,566L1447,483L1354,471Z" fill="#2660fe" stroke="#2660fe" stroke-width="1.51"/><path d="M1465,321L1449,198L1391,218Z" fill="#397be3" stroke="#397be3" stroke-width="1.51"/><path d="M1298,-61L1369,-79L1247,-97Z" fill="#b08aa7" stroke="#b08aa7" stroke-width="1.51"/><path d="M1386,25L1350,-42L1272,58Z" fill="#8d8bba" stroke="#8d8bba" stroke-width="1.51"/><path d="M1465,321L1352,345L1398,378Z" fill="#326cf0" stroke="#326cf0" stroke-width="1.51"/><path d="M181,901L240,906L256,853Z" fill="#5f8ccc" stroke="#5f8ccc" stroke-width="1.51"/><path d="M38,556L85,649L135,551Z" fill="#9185b8" stroke="#9185b8" stroke-width="1.51"/><path d="M1471,385L1465,321L1398,378Z" fill="#2f68f2" stroke="#2f68f2" stroke-width="1.51"/><path d="M122,56L76,43L90,156Z" fill="#91ac82" stroke="#91ac82" stroke-width="1.51"/><path d="M64,232L-12,286L40,315Z" fill="#969799" stroke="#969799" stroke-width="1.51"/><path d="M66,-6L122,56L189,4Z" fill="#a2ac78" stroke="#a2ac78" stroke-width="1.51"/><path d="M1286,785L1363,742L1357,671Z" fill="#3872fd" stroke="#3872fd" stroke-width="1.51"/><path d="M1091,931L1220,895L1105,851Z" fill="#3972fd" stroke="#3972fd" stroke-width="1.51"/><path d="M1171,974L1220,895L1091,931Z" fill="#3770fd" stroke="#3770fd" stroke-width="1.51"/><path d="M1447,483L1471,385L1398,378Z" fill="#2660fa" stroke="#2660fa" stroke-width="1.51"/><path d="M45,518L38,556L135,551Z" fill="#9482b7" stroke="#9482b7" stroke-width="1.51"/><path d="M-31,579L38,556L-53,529Z" fill="#aa81ab" stroke="#aa81ab" stroke-width="1.51"/><path d="M1449,198L1450,142L1364,157Z" fill="#3988d7" stroke="#3988d7" stroke-width="1.51"/><path d="M1386,25L1369,-79L1350,-42Z" fill="#9f89b1" stroke="#9f89b1" stroke-width="1.51"/><path d="M1542,158L1450,142L1449,198Z" fill="#3886d7" stroke="#3886d7" stroke-width="1.51"/><path d="M1452,63L1533,45L1473,11Z" fill="#8187bf" stroke="#8187bf" stroke-width="1.51"/><path d="M1220,895L1259,870L1163,830Z" fill="#3872fd" stroke="#3872fd" stroke-width="1.51"/><path d="M1362,816L1363,742L1286,785Z" fill="#3872fd" stroke="#3872fd" stroke-width="1.51"/><path d="M1357,671L1433,605L1383,566Z" fill="#2f67fe" stroke="#2f67fe" stroke-width="1.51"/><path d="M1531,384L1531,335L1471,385Z" fill="#2c65f4" stroke="#2c65f4" stroke-width="1.51"/><path d="M1437,660L1433,605L1357,671Z" fill="#3169fe" stroke="#3169fe" stroke-width="1.51"/><path d="M40,315L-11,373L75,399Z" fill="#9a89a6" stroke="#9a89a6" stroke-width="1.51"/><path d="M-33,180L11,211L90,156Z" fill="#91a78a" stroke="#91a78a" stroke-width="1.51"/><path d="M887,1040L1027,1029L924,993Z" fill="#2761ff" stroke="#2761ff" stroke-width="1.51"/><path d="M1220,895L1315,897L1259,870Z" fill="#356ffd" stroke="#356ffd" stroke-width="1.51"/><path d="M365,1044L407,891L349,889Z" fill="#3982dd" stroke="#3982dd" stroke-width="1.51"/><path d="M476,984L432,1027L608,1021Z" fill="#3370ea" stroke="#3370ea" stroke-width="1.51"/><path d="M608,1021L365,1044L887,1040Z" fill="#2762f5" stroke="#2762f5" stroke-width="1.51"/><path d="M-12,286L-11,373L40,315Z" fill="#9f8f9d" stroke="#9f8f9d" stroke-width="1.51"/><path d="M256,853L240,906L349,889Z" fill="#3e8dd3" stroke="#3e8dd3" stroke-width="1.51"/><path d="M158,860L244,729L153,725Z" fill="#7191c5" stroke="#7191c5" stroke-width="1.51"/><path d="M1027,1029L1082,1017L1009,919Z" fill="#2f68fe" stroke="#2f68fe" stroke-width="1.51"/><path d="M11,211L-12,286L64,232Z" fill="#969d92" stroke="#969d92" stroke-width="1.51"/><path d="M1350,-42L1369,-79L1298,-61Z" fill="#aa8aaa" stroke="#aa8aaa" stroke-width="1.51"/><path d="M1473,11L1369,-79L1386,25Z" fill="#9988b4" stroke="#9988b4" stroke-width="1.51"/><path d="M85,649L83,718L132,666Z" fill="#8e8cba" stroke="#8e8cba" stroke-width="1.51"/><path d="M22,654L83,718L85,649Z" fill="#988bb5" stroke="#988bb5" stroke-width="1.51"/><path d="M-1,25L-33,180L90,156Z" fill="#98ac7e" stroke="#98ac7e" stroke-width="1.51"/><path d="M11,211L-33,180L-12,286Z" fill="#9da08b" stroke="#9da08b" stroke-width="1.51"/><path d="M148,-134L66,-6L189,4Z" fill="#b3ac6b" stroke="#b3ac6b" stroke-width="1.51"/><path d="M232,-142L148,-134L189,4Z" fill="#b5ad69" stroke="#b5ad69" stroke-width="1.51"/><path d="M1082,1017L1171,974L1091,931Z" fill="#346dfd" stroke="#346dfd" stroke-width="1.51"/><path d="M1450,142L1452,63L1364,157Z" fill="#528ad0" stroke="#528ad0" stroke-width="1.51"/><path d="M1571,242L1449,198L1465,321Z" fill="#3778e4" stroke="#3778e4" stroke-width="1.51"/><path d="M1531,384L1471,385L1447,483Z" fill="#235efa" stroke="#235efa" stroke-width="1.51"/><path d="M1419,744L1437,660L1357,671Z" fill="#336cfe" stroke="#336cfe" stroke-width="1.51"/><path d="M1419,744L1357,671L1363,742Z" fill="#366ffd" stroke="#366ffd" stroke-width="1.51"/><path d="M1362,816L1286,785L1259,870Z" fill="#3871fd" stroke="#3871fd" stroke-width="1.51"/><path d="M86,832L158,860L153,725Z" fill="#848fbe" stroke="#848fbe" stroke-width="1.51"/><path d="M240,906L365,1044L349,889Z" fill="#3987d8" stroke="#3987d8" stroke-width="1.51"/><path d="M1315,897L1362,816L1259,870Z" fill="#356ffd" stroke="#356ffd" stroke-width="1.51"/><path d="M83,718L86,832L153,725Z" fill="#8c91ba" stroke="#8c91ba" stroke-width="1.51"/><path d="M38,556L22,654L85,649Z" fill="#9b87b3" stroke="#9b87b3" stroke-width="1.51"/><path d="M-31,579L22,654L38,556Z" fill="#a585ae" stroke="#a585ae" stroke-width="1.51"/><path d="M1362,816L1419,744L1363,742Z" fill="#3771fd" stroke="#3771fd" stroke-width="1.51"/><path d="M1471,385L1531,335L1465,321Z" fill="#2f69f0" stroke="#2f69f0" stroke-width="1.51"/><path d="M1531,384L1447,483L1577,504Z" fill="#1757ff" stroke="#1757ff" stroke-width="1.51"/><path d="M1447,483L1433,605L1554,569Z" fill="#2660fe" stroke="#2660fe" stroke-width="1.51"/><path d="M91,902L181,901L158,860Z" fill="#7f8bc0" stroke="#7f8bc0" stroke-width="1.51"/><path d="M158,860L181,901L256,853Z" fill="#6b8dc8" stroke="#6b8dc8" stroke-width="1.51"/><path d="M1554,569L1433,605L1576,640Z" fill="#2862ff" stroke="#2862ff" stroke-width="1.51"/><path d="M-1,25L90,156L76,43Z" fill="#9fac79" stroke="#9fac79" stroke-width="1.51"/><path d="M-110,492L-53,529L-11,373Z" fill="#b379a5" stroke="#b379a5" stroke-width="1.51"/><path d="M207,1005L365,1044L240,906Z" fill="#4588d3" stroke="#4588d3" stroke-width="1.51"/><path d="M432,1027L365,1044L608,1021Z" fill="#3473e7" stroke="#3473e7" stroke-width="1.51"/><path d="M1276,1029L1315,897L1220,895Z" fill="#336cfe" stroke="#336cfe" stroke-width="1.51"/><path d="M1471,830L1515,737L1419,744Z" fill="#346efd" stroke="#346efd" stroke-width="1.51"/><path d="M1452,63L1473,11L1386,25Z" fill="#8588be" stroke="#8588be" stroke-width="1.51"/><path d="M1533,45L1452,63L1450,142Z" fill="#6b88c8" stroke="#6b88c8" stroke-width="1.51"/><path d="M-53,529L38,556L45,518Z" fill="#a480ae" stroke="#a480ae" stroke-width="1.51"/><path d="M-26,784L86,832L83,718Z" fill="#9c90b2" stroke="#9c90b2" stroke-width="1.51"/><path d="M-53,529L45,518L-11,373Z" fill="#a77bad" stroke="#a77bad" stroke-width="1.51"/><path d="M66,-6L-1,25L76,43Z" fill="#b1ac6d" stroke="#b1ac6d" stroke-width="1.51"/><path d="M-18,-48L-1,25L66,-6Z" fill="#c0ac60" stroke="#c0ac60" stroke-width="1.51"/><path d="M148,-134L85,-141L66,-6Z" fill="#c7ac5a" stroke="#c7ac5a" stroke-width="1.51"/><path d="M232,-142L85,-141L148,-134Z" fill="#c9ac59" stroke="#c9ac59" stroke-width="1.51"/><path d="M-96,369L-11,373L-12,286Z" fill="#ab8c99" stroke="#ab8c99" stroke-width="1.51"/><path d="M91,902L86,832L-8,828Z" fill="#9a8cb4" stroke="#9a8cb4" stroke-width="1.51"/><path d="M181,901L207,1005L240,906Z" fill="#668aca" stroke="#668aca" stroke-width="1.51"/><path d="M1571,242L1465,321L1531,335Z" fill="#3370ea" stroke="#3370ea" stroke-width="1.51"/><path d="M1571,242L1542,158L1449,198Z" fill="#387fdd" stroke="#387fdd" stroke-width="1.51"/><path d="M85,-141L17,-74L66,-6Z" fill="#caac58" stroke="#caac58" stroke-width="1.51"/><path d="M-98,208L-12,286L-33,180Z" fill="#a5a086" stroke="#a5a086" stroke-width="1.51"/><path d="M1531,384L1571,242L1531,335Z" fill="#316ced" stroke="#316ced" stroke-width="1.51"/><path d="M-81,180L-33,180L-1,25Z" fill="#a3ac77" stroke="#a3ac77" stroke-width="1.51"/><path d="M-135,340L-96,369L-12,286Z" fill="#b38d91" stroke="#b38d91" stroke-width="1.51"/><path d="M-86,5L-81,180L-1,25Z" fill="#b8ad67" stroke="#b8ad67" stroke-width="1.51"/><path d="M1515,737L1437,660L1419,744Z" fill="#336dfd" stroke="#336dfd" stroke-width="1.51"/><path d="M1576,640L1433,605L1437,660Z" fill="#2d65fe" stroke="#2d65fe" stroke-width="1.51"/><path d="M1531,384L1577,504L1571,242Z" fill="#2862f5" stroke="#2862f5" stroke-width="1.51"/><path d="M1542,158L1533,45L1450,142Z" fill="#5687cf" stroke="#5687cf" stroke-width="1.51"/><path d="M1473,11L1482,-87L1369,-79Z" fill="#a686ad" stroke="#a686ad" stroke-width="1.51"/><path d="M1564,-40L1533,45L1542,158Z" fill="#7a85c3" stroke="#7a85c3" stroke-width="1.51"/><path d="M-81,180L-98,208L-33,180Z" fill="#a7a57d" stroke="#a7a57d" stroke-width="1.51"/><path d="M-125,27L-98,208L-81,180Z" fill="#adac6f" stroke="#adac6f" stroke-width="1.51"/><path d="M192,1022L207,1005L181,901Z" fill="#6c88c7" stroke="#6c88c7" stroke-width="1.51"/><path d="M1554,569L1577,504L1447,483Z" fill="#1f5cff" stroke="#1f5cff" stroke-width="1.51"/><path d="M1315,897L1376,913L1362,816Z" fill="#336cfd" stroke="#336cfd" stroke-width="1.51"/><path d="M1382,1008L1376,913L1315,897Z" fill="#2f69fe" stroke="#2f69fe" stroke-width="1.51"/><path d="M1276,1029L1220,895L1171,974Z" fill="#336dfe" stroke="#336dfe" stroke-width="1.51"/><path d="M17,-74L-18,-48L66,-6Z" fill="#c8ac5a" stroke="#c8ac5a" stroke-width="1.51"/><path d="M-95,-78L-18,-48L17,-74Z" fill="#d8ac4a" stroke="#d8ac4a" stroke-width="1.51"/><path d="M1369,-79L1482,-87L1247,-97Z" fill="#b388a5" stroke="#b388a5" stroke-width="1.51"/><path d="M1247,-97L1482,-87L1036,-114Z" fill="#b78ba2" stroke="#b78ba2" stroke-width="1.51"/><path d="M1538,-85L1482,-87L1564,-40Z" fill="#ac83aa" stroke="#ac83aa" stroke-width="1.51"/><path d="M86,832L91,902L158,860Z" fill="#8a8cbb" stroke="#8a8cbb" stroke-width="1.51"/><path d="M-26,784L83,718L22,654Z" fill="#a28eaf" stroke="#a28eaf" stroke-width="1.51"/><path d="M-26,784L22,654L-136,663Z" fill="#b38ca5" stroke="#b38ca5" stroke-width="1.51"/><path d="M-53,529L-89,559L-31,579Z" fill="#b481a5" stroke="#b481a5" stroke-width="1.51"/><path d="M-110,492L-89,559L-53,529Z" fill="#ba7ea1" stroke="#ba7ea1" stroke-width="1.51"/><path d="M-96,369L-110,492L-11,373Z" fill="#b57f9e" stroke="#b57f9e" stroke-width="1.51"/><path d="M-135,340L-110,492L-96,369Z" fill="#bd8097" stroke="#bd8097" stroke-width="1.51"/><path d="M1554,569L1576,640L1577,504Z" fill="#225eff" stroke="#225eff" stroke-width="1.51"/><path d="M1471,830L1419,744L1362,816Z" fill="#346efd" stroke="#346efd" stroke-width="1.51"/><path d="M887,1040L1276,1029L1027,1029Z" fill="#2d67fe" stroke="#2d67fe" stroke-width="1.51"/><path d="M1027,1029L1276,1029L1082,1017Z" fill="#316bfe" stroke="#316bfe" stroke-width="1.51"/><path d="M1082,1017L1276,1029L1171,974Z" fill="#326cfe" stroke="#326cfe" stroke-width="1.51"/><path d="M207,1005L192,1022L365,1044Z" fill="#4e86d1" stroke="#4e86d1" stroke-width="1.51"/><path d="M91,902L192,1022L181,901Z" fill="#7b89c2" stroke="#7b89c2" stroke-width="1.51"/><path d="M-98,208L-135,340L-12,286Z" fill="#b09789" stroke="#b09789" stroke-width="1.51"/><path d="M1446,949L1471,830L1376,913Z" fill="#2e69fe" stroke="#2e69fe" stroke-width="1.51"/><path d="M1376,913L1471,830L1362,816Z" fill="#326cfe" stroke="#326cfe" stroke-width="1.51"/><path d="M91,902L44,1030L192,1022Z" fill="#8986bc" stroke="#8986bc" stroke-width="1.51"/><path d="M-136,663L22,654L-31,579Z" fill="#b387a5" stroke="#b387a5" stroke-width="1.51"/><path d="M-136,663L-31,579L-89,559Z" fill="#bb83a1" stroke="#bb83a1" stroke-width="1.51"/><path d="M1515,737L1576,640L1437,660Z" fill="#2f68fe" stroke="#2f68fe" stroke-width="1.51"/><path d="M1553,802L1576,640L1515,737Z" fill="#306afe" stroke="#306afe" stroke-width="1.51"/><path d="M-26,784L-8,828L86,832Z" fill="#a48dae" stroke="#a48dae" stroke-width="1.51"/><path d="M-125,27L-86,5L-95,-78Z" fill="#d7ac4b" stroke="#d7ac4b" stroke-width="1.51"/><path d="M-18,-48L-86,5L-1,25Z" fill="#c9ac59" stroke="#c9ac59" stroke-width="1.51"/><path d="M-98,208L-125,27L-135,340Z" fill="#b2a576" stroke="#b2a576" stroke-width="1.51"/><path d="M1564,-40L1482,-87L1473,11Z" fill="#a184b0" stroke="#a184b0" stroke-width="1.51"/><path d="M1482,-87L1538,-85L778,-142Z" fill="#b98ba1" stroke="#b98ba1" stroke-width="1.51"/><path d="M1564,-40L1473,11L1533,45Z" fill="#9084b9" stroke="#9084b9" stroke-width="1.51"/><path d="M1571,242L1564,-40L1542,158Z" fill="#5286d0" stroke="#5286d0" stroke-width="1.51"/><path d="M-95,-78L-86,5L-18,-48Z" fill="#d7ac4b" stroke="#d7ac4b" stroke-width="1.51"/><path d="M-86,5L-125,27L-81,180Z" fill="#c0ac61" stroke="#c0ac61" stroke-width="1.51"/><path d="M1471,830L1553,802L1515,737Z" fill="#316bfe" stroke="#316bfe" stroke-width="1.51"/><path d="M1276,1029L1382,1008L1315,897Z" fill="#2e69fe" stroke="#2e69fe" stroke-width="1.51"/><path d="M1382,1008L1446,949L1376,913Z" fill="#2c67fe" stroke="#2c67fe" stroke-width="1.51"/><path d="M1548,892L1553,802L1471,830Z" fill="#2d69fe" stroke="#2d69fe" stroke-width="1.51"/><path d="M-26,784L-80,837L-8,828Z" fill="#b18da6" stroke="#b18da6" stroke-width="1.51"/><path d="M-110,492L-136,663L-89,559Z" fill="#c0809d" stroke="#c0809d" stroke-width="1.51"/><path d="M-135,340L-136,663L-110,492Z" fill="#c37a9c" stroke="#c37a9c" stroke-width="1.51"/><path d="M85,-141L-95,-78L17,-74Z" fill="#daac48" stroke="#daac48" stroke-width="1.51"/><path d="M-135,789L-80,837L-26,784Z" fill="#bb8ca0" stroke="#bb8ca0" stroke-width="1.51"/><path d="M-38,936L44,1030L91,902Z" fill="#9f87b1" stroke="#9f87b1" stroke-width="1.51"/><path d="M1446,949L1548,892L1471,830Z" fill="#2c67fe" stroke="#2c67fe" stroke-width="1.51"/><path d="M1382,1008L1452,997L1446,949Z" fill="#2865fe" stroke="#2865fe" stroke-width="1.51"/><path d="M1558,1026L1452,997L1382,1008Z" fill="#2462ff" stroke="#2462ff" stroke-width="1.51"/><path d="M1558,1026L1548,892L1446,949Z" fill="#2664ff" stroke="#2664ff" stroke-width="1.51"/><path d="M1553,802L1558,1026L1576,640Z" fill="#2d68fe" stroke="#2d68fe" stroke-width="1.51"/><path d="M192,1022L44,1030L365,1044Z" fill="#6885c9" stroke="#6885c9" stroke-width="1.51"/><path d="M-38,936L91,902L-8,828Z" fill="#a389ae" stroke="#a389ae" stroke-width="1.51"/><path d="M-80,837L-38,936L-8,828Z" fill="#b28aa6" stroke="#b28aa6" stroke-width="1.51"/><path d="M-80,837L-94,947L-38,936Z" fill="#b887a2" stroke="#b887a2" stroke-width="1.51"/><path d="M-136,663L-135,789L-26,784Z" fill="#bf8e9d" stroke="#bf8e9d" stroke-width="1.51"/><path d="M44,1030L11,1032L365,1044Z" fill="#7e84c1" stroke="#7e84c1" stroke-width="1.51"/><path d="M-38,936L11,1032L44,1030Z" fill="#a584ad" stroke="#a584ad" stroke-width="1.51"/><path d="M-79,998L11,1032L-38,936Z" fill="#af83a8" stroke="#af83a8" stroke-width="1.51"/><path d="M-135,789L-94,947L-80,837Z" fill="#bf899d" stroke="#bf899d" stroke-width="1.51"/><path d="M-94,947L-79,998L-38,936Z" fill="#b784a3" stroke="#b784a3" stroke-width="1.51"/><path d="M1452,997L1558,1026L1446,949Z" fill="#2563fe" stroke="#2563fe" stroke-width="1.51"/><path d="M1548,892L1558,1026L1553,802Z" fill="#2864ff" stroke="#2864ff" stroke-width="1.51"/><path d="M1276,1029L1558,1026L1382,1008Z" fill="#2664ff" stroke="#2664ff" stroke-width="1.51"/><path d="M887,1040L1558,1026L1276,1029Z" fill="#2e69fe" stroke="#2e69fe" stroke-width="1.51"/></svg>